<svg width="24" height="25" viewBox="0 0 24 25" fill="none" xmlns="http://www.w3.org/2000/svg">
<path d="M13 11.8334C13 11.005 13.6716 10.3334 14.5 10.3334C15.3284 10.3334 16 11.005 16 11.8334C16 12.6618 15.3284 13.3334 14.5 13.3334C13.6716 13.3334 13 12.6618 13 11.8334Z" fill="url(#paint0_linear_1031_687)"/>
<path d="M11.136 13.4359C10.9989 13.2166 10.7586 13.0834 10.5 13.0834C10.2414 13.0834 10.0011 13.2166 9.864 13.4359L7.364 17.4359C7.2195 17.6671 7.21185 17.9585 7.34402 18.197C7.47619 18.4354 7.72736 18.5834 8 18.5834H16C16.2841 18.5834 16.5438 18.4229 16.6708 18.1688C16.7979 17.9147 16.7705 17.6107 16.6 17.3834L15.1 15.3834C14.9584 15.1945 14.7361 15.0834 14.5 15.0834C14.2639 15.0834 14.0416 15.1945 13.9 15.3834L13.0563 16.5084L11.136 13.4359Z" fill="url(#paint1_linear_1031_687)"/>
<path fill-rule="evenodd" clip-rule="evenodd" d="M7 2.58337C5.48122 2.58337 4.25 3.81459 4.25 5.33337V19.3334C4.25 20.8522 5.48122 22.0834 7 22.0834H17C18.5188 22.0834 19.75 20.8522 19.75 19.3334V8.30103C19.75 7.92026 19.6258 7.54988 19.3963 7.24607L16.3985 3.27841C16.0677 2.84067 15.5509 2.58337 15.0022 2.58337H7ZM5.75 5.33337C5.75 4.64301 6.30964 4.08337 7 4.08337H14.25V8.48042C14.25 8.89463 14.5858 9.23042 15 9.23042H18.25V19.3334C18.25 20.0238 17.6904 20.5834 17 20.5834H7C6.30964 20.5834 5.75 20.0238 5.75 19.3334V5.33337Z" fill="url(#paint2_linear_1031_687)"/>
<defs>
<linearGradient id="paint0_linear_1031_687" x1="14.5" y1="10.3334" x2="14.5" y2="13.3334" gradientUnits="userSpaceOnUse">
<stop stop-color="#BC0000"/>
<stop offset="1" stop-opacity="0.85"/>
</linearGradient>
<linearGradient id="paint1_linear_1031_687" x1="12" y1="13.0834" x2="12" y2="18.5834" gradientUnits="userSpaceOnUse">
<stop stop-color="#BC0000"/>
<stop offset="1" stop-opacity="0.85"/>
</linearGradient>
<linearGradient id="paint2_linear_1031_687" x1="12" y1="2.58337" x2="12" y2="22.0834" gradientUnits="userSpaceOnUse">
<stop stop-color="#BC0000"/>
<stop offset="1" stop-opacity="0.85"/>
</linearGradient>
</defs>
</svg>
