<svg width="24" height="25" viewBox="0 0 24 25" fill="none" xmlns="http://www.w3.org/2000/svg">
<path fill-rule="evenodd" clip-rule="evenodd" d="M12.0003 3.91259L9.78746 6.20209C9.55193 6.44578 9.22755 6.58339 8.88865 6.58339H5.75026V9.72178C5.75026 10.0607 5.61265 10.3851 5.36896 10.6206L3.07946 12.8334L5.36896 15.0462C5.61265 15.2817 5.75026 15.6061 5.75026 15.945V19.0834H8.88865C9.22755 19.0834 9.55193 19.221 9.78746 19.4647L12.0003 21.7542L14.2131 19.4647C14.4486 19.221 14.773 19.0834 15.1119 19.0834H18.2503V15.945C18.2503 15.6061 18.3879 15.2817 18.6316 15.0462L20.9211 12.8334L18.6316 10.6206C18.3879 10.3851 18.2503 10.0607 18.2503 9.72179V6.58339H15.1119C14.773 6.58339 14.4486 6.44578 14.2131 6.20209L12.0003 3.91259ZM11.1015 2.68416C11.5929 2.17576 12.4077 2.17576 12.8991 2.68416L15.218 5.08339H18.5003C19.1907 5.08339 19.7503 5.64304 19.7503 6.33339V9.61573L22.1495 11.9346C22.6579 12.426 22.6579 13.2408 22.1495 13.7322L19.7503 16.0511V19.3334C19.7503 20.0238 19.1907 20.5834 18.5003 20.5834H15.218L12.8991 22.9826C12.4077 23.491 11.5929 23.491 11.1015 22.9826L8.78259 20.5834H5.50026C4.8099 20.5834 4.25026 20.0238 4.25026 19.3334V16.0511L1.85103 13.7322C1.34263 13.2408 1.34262 12.426 1.85103 11.9346L4.25026 9.61572V6.33339C4.25026 5.64303 4.8099 5.08339 5.50026 5.08339H8.78259L11.1015 2.68416Z" fill="url(#paint0_linear_1048_837)"/>
<path fill-rule="evenodd" clip-rule="evenodd" d="M7.25 12.8334C7.25 10.21 9.37665 8.08337 12 8.08337C14.6234 8.08337 16.75 10.21 16.75 12.8334C16.75 15.4568 14.6234 17.5834 12 17.5834C9.37665 17.5834 7.25 15.4568 7.25 12.8334ZM12 9.58337C10.2051 9.58337 8.75 11.0385 8.75 12.8334C8.75 14.6283 10.2051 16.0834 12 16.0834C13.7949 16.0834 15.25 14.6283 15.25 12.8334C15.25 11.0385 13.7949 9.58337 12 9.58337Z" fill="url(#paint1_linear_1048_837)"/>
<defs>
<linearGradient id="paint0_linear_1048_837" x1="12.0002" y1="2.30286" x2="12.0002" y2="23.3639" gradientUnits="userSpaceOnUse">
<stop stop-color="#BC0000"/>
<stop offset="1" stop-opacity="0.85"/>
</linearGradient>
<linearGradient id="paint1_linear_1048_837" x1="12" y1="8.08337" x2="12" y2="17.5834" gradientUnits="userSpaceOnUse">
<stop stop-color="#BC0000"/>
<stop offset="1" stop-opacity="0.85"/>
</linearGradient>
</defs>
</svg>
