<svg width="24" height="25" viewBox="0 0 24 25" fill="none" xmlns="http://www.w3.org/2000/svg">
<path fill-rule="evenodd" clip-rule="evenodd" d="M15.9244 5.08496C13.3313 4.65023 10.6691 4.65023 8.07598 5.08496C7.58798 5.16677 7.20039 5.5417 7.10311 6.02464C6.21804 10.4186 6.16974 14.9401 6.96077 19.352L7.12432 20.2642L10.7949 16.7772C11.4703 16.1355 12.5301 16.1355 13.2055 16.7772L16.876 20.2642L17.0396 19.352C17.8306 14.9401 17.7823 10.4186 16.8972 6.02464C16.8 5.5417 16.4124 5.16677 15.9244 5.08496ZM7.82797 3.60561C10.5853 3.14335 13.4151 3.14335 16.1724 3.60561C17.2716 3.78989 18.1472 4.6337 18.3677 5.72844C19.29 10.3073 19.3404 15.0191 18.516 19.6167L18.2946 20.852C18.1087 21.8889 16.8446 22.3033 16.0809 21.5778L12.1724 17.8647C12.0759 17.773 11.9245 17.773 11.828 17.8647L7.91944 21.5778C7.15574 22.3033 5.8917 21.8889 5.7058 20.852L5.48431 19.6167C4.66 15.0191 4.71032 10.3074 5.63265 5.72844C5.85316 4.6337 6.72876 3.78989 7.82797 3.60561Z" fill="#666666"/>
</svg>
