<svg width="32" height="32" viewBox="0 0 32 32" fill="none" xmlns="http://www.w3.org/2000/svg">
<path fill-rule="evenodd" clip-rule="evenodd" d="M9.33309 4.33337C9.88537 4.33337 10.3331 4.78109 10.3331 5.33337V7.55688C14.1034 7.22111 17.8962 7.22111 21.6664 7.55688V5.33337C21.6664 4.78109 22.1142 4.33337 22.6664 4.33337C23.2187 4.33337 23.6664 4.78109 23.6664 5.33337V7.75529C25.6571 8.03676 27.2299 9.61133 27.496 11.6198L27.6115 12.4904C28.0968 16.1522 28.055 19.8646 27.487 23.5146C27.2056 25.3226 25.7368 26.7114 23.9158 26.8908L22.3251 27.0478C18.1184 27.4626 13.8811 27.4626 9.67433 27.0478L8.08365 26.8908C6.26267 26.7114 4.79379 25.3226 4.51244 23.5146C3.94449 19.8646 3.90257 16.1522 4.38796 12.4904L4.50336 11.6198C4.7696 9.61131 6.34233 8.03672 8.33309 7.75528V5.33337C8.33309 4.78109 8.78081 4.33337 9.33309 4.33337ZM9.92664 9.60377C13.9656 9.20548 18.0339 9.20548 22.0728 9.60377L23.28 9.72284C24.4358 9.8368 25.3608 10.7314 25.5134 11.8826L25.6288 12.7532C25.6691 13.0574 25.7056 13.3619 25.7383 13.6667H6.26117C6.29383 13.3619 6.33029 13.0574 6.37061 12.7532L6.48601 11.8826C6.63861 10.7314 7.56371 9.8368 8.71937 9.72284L9.92664 9.60377ZM6.1022 15.6667C5.97129 18.1842 6.10027 20.711 6.48865 23.207C6.62977 24.1139 7.36655 24.8104 8.27993 24.9006L9.87061 25.0574C13.9468 25.4594 18.0527 25.4594 22.1288 25.0574L23.7195 24.9006C24.6328 24.8104 25.3696 24.1139 25.5108 23.207C25.8992 20.711 26.0282 18.1842 25.8972 15.6667H6.1022Z" fill="#666666"/>
</svg>
