<svg width="24" height="24" viewBox="0 0 24 24" fill="none" xmlns="http://www.w3.org/2000/svg">
<path fill-rule="evenodd" clip-rule="evenodd" d="M8.92856 4.47033C7.65735 4.32825 6.34144 4.32825 5.07022 4.47033C4.76133 4.50485 4.51773 4.74944 4.48299 5.0465C4.33118 6.34444 4.33118 7.65565 4.48299 8.9536C4.51773 9.25065 4.76133 9.49524 5.07022 9.52977C6.34144 9.67184 7.65735 9.67184 8.92856 9.52977C9.23745 9.49524 9.48105 9.25065 9.5158 8.9536C9.6676 7.65565 9.6676 6.34444 9.5158 5.0465C9.48105 4.74944 9.23745 4.50485 8.92856 4.47033ZM4.90361 2.97961C6.28556 2.82516 7.71323 2.82516 9.09517 2.97961C10.086 3.09035 10.8885 3.87034 11.0056 4.87225C11.171 6.28596 11.171 7.71413 11.0056 9.12785C10.8885 10.1297 10.086 10.9097 9.09517 11.0204C7.71323 11.1749 6.28556 11.1749 4.90361 11.0204C3.91277 10.9097 3.11033 10.1297 2.99315 9.12785C2.8278 7.71413 2.8278 6.28596 2.99315 4.87225C3.11033 3.87034 3.91277 3.09035 4.90361 2.97961Z" fill="#666666"/>
<path fill-rule="evenodd" clip-rule="evenodd" d="M8.92856 14.4703C7.65735 14.3282 6.34144 14.3282 5.07022 14.4703C4.76133 14.5048 4.51773 14.7494 4.48299 15.0465C4.33118 16.3444 4.33118 17.6556 4.48299 18.9535C4.51773 19.2506 4.76133 19.4952 5.07022 19.5297C6.34144 19.6718 7.65735 19.6718 8.92856 19.5297C9.23745 19.4952 9.48105 19.2506 9.5158 18.9535C9.6676 17.6556 9.6676 16.3444 9.5158 15.0465C9.48105 14.7494 9.23745 14.5048 8.92856 14.4703ZM4.90361 12.9796C6.28556 12.8251 7.71323 12.8251 9.09517 12.9796C10.086 13.0903 10.8885 13.8703 11.0056 14.8722C11.171 16.2859 11.171 17.7141 11.0056 19.1278C10.8885 20.1297 10.086 20.9097 9.09517 21.0204C7.71323 21.1749 6.28556 21.1749 4.90361 21.0204C3.91277 20.9097 3.11033 20.1297 2.99315 19.1278C2.8278 17.7141 2.8278 16.2859 2.99315 14.8722C3.11033 13.8703 3.91277 13.0903 4.90361 12.9796Z" fill="#666666"/>
<path fill-rule="evenodd" clip-rule="evenodd" d="M18.9286 4.47033C17.6573 4.32825 16.3414 4.32825 15.0702 4.47033C14.7613 4.50485 14.5177 4.74944 14.483 5.0465C14.3312 6.34444 14.3312 7.65565 14.483 8.9536C14.5177 9.25065 14.7613 9.49524 15.0702 9.52977C16.3414 9.67184 17.6573 9.67184 18.9286 9.52977C19.2375 9.49524 19.4811 9.25065 19.5158 8.9536C19.6676 7.65565 19.6676 6.34444 19.5158 5.0465C19.4811 4.74944 19.2375 4.50485 18.9286 4.47033ZM14.9036 2.97961C16.2856 2.82516 17.7132 2.82516 19.0952 2.97961C20.086 3.09035 20.8885 3.87034 21.0056 4.87225C21.171 6.28596 21.171 7.71413 21.0056 9.12785C20.8885 10.1297 20.086 10.9097 19.0952 11.0204C17.7132 11.1749 16.2856 11.1749 14.9036 11.0204C13.9128 10.9097 13.1103 10.1297 12.9931 9.12785C12.8278 7.71413 12.8278 6.28596 12.9931 4.87225C13.1103 3.87034 13.9128 3.09035 14.9036 2.97961Z" fill="#666666"/>
<path fill-rule="evenodd" clip-rule="evenodd" d="M18.9286 14.4703C17.6573 14.3282 16.3414 14.3282 15.0702 14.4703C14.7613 14.5048 14.5177 14.7494 14.483 15.0465C14.3312 16.3444 14.3312 17.6556 14.483 18.9535C14.5177 19.2506 14.7613 19.4952 15.0702 19.5297C16.3414 19.6718 17.6573 19.6718 18.9286 19.5297C19.2375 19.4952 19.4811 19.2506 19.5158 18.9535C19.6676 17.6556 19.6676 16.3444 19.5158 15.0465C19.4811 14.7494 19.2375 14.5048 18.9286 14.4703ZM14.9036 12.9796C16.2856 12.8251 17.7132 12.8251 19.0952 12.9796C20.086 13.0903 20.8885 13.8703 21.0056 14.8722C21.171 16.2859 21.171 17.7141 21.0056 19.1278C20.8885 20.1297 20.086 20.9097 19.0952 21.0204C17.7132 21.1749 16.2856 21.1749 14.9036 21.0204C13.9128 20.9097 13.1103 20.1297 12.9931 19.1278C12.8278 17.7141 12.8278 16.2859 12.9931 14.8722C13.1103 13.8703 13.9128 13.0903 14.9036 12.9796Z" fill="#666666"/>
</svg>
