<svg width="12" height="20" viewBox="0 0 12 20" fill="none" xmlns="http://www.w3.org/2000/svg">
<path fill-rule="evenodd" clip-rule="evenodd" d="M4.2377 1.53769C5.2223 0.55312 6.5576 0 7.95 0H10.65C11.0642 0 11.4 0.33579 11.4 0.75V4.35C11.4 4.76421 11.0642 5.1 10.65 5.1H7.95C7.9102 5.1 7.8721 5.1158 7.8439 5.14393C7.8158 5.17206 7.8 5.21022 7.8 5.25V7.2H10.65C10.881 7.2 11.099 7.3064 11.2412 7.48844C11.3833 7.67048 11.4336 7.9078 11.3776 8.1319L10.4776 11.7319C10.3941 12.0658 10.0942 12.3 9.75 12.3H7.8V18.75C7.8 19.1642 7.4642 19.5 7.05 19.5H3.45C3.03579 19.5 2.7 19.1642 2.7 18.75V12.3H0.75C0.33579 12.3 0 11.9642 0 11.55V7.95C0 7.53579 0.33579 7.2 0.75 7.2H2.7V5.25C2.7 3.85761 3.25312 2.52226 4.2377 1.53769ZM7.95 1.5C6.9554 1.5 6.0016 1.89509 5.2983 2.59835C4.5951 3.30161 4.2 4.25544 4.2 5.25V7.95C4.2 8.3642 3.8642 8.7 3.45 8.7H1.5V10.8H3.45C3.8642 10.8 4.2 11.1358 4.2 11.55V18H6.3V11.55C6.3 11.1358 6.6358 10.8 7.05 10.8H9.1644L9.6894 8.7H7.05C6.6358 8.7 6.3 8.3642 6.3 7.95V5.25C6.3 4.81239 6.4738 4.39271 6.7833 4.08327C7.0927 3.77384 7.5124 3.6 7.95 3.6H9.9V1.5H7.95Z" fill="white"/>
</svg>
