<svg width="16" height="19" viewBox="0 0 16 19" fill="none" xmlns="http://www.w3.org/2000/svg">
<path fill-rule="evenodd" clip-rule="evenodd" d="M13.7787 1.83346C9.80056 1.38885 5.7852 1.38885 1.80704 1.83346C1.53787 1.86355 1.40824 2.1792 1.57859 2.38977L5.09561 6.73729C6.35546 8.29469 7.04286 10.2373 7.04286 12.2405V15.1297L8.54286 16.2297V12.2405C8.54286 10.2373 9.23026 8.29469 10.4902 6.73729L14.0072 2.38977C14.1775 2.1792 14.0479 1.86355 13.7787 1.83346ZM1.64043 0.34275C5.72932 -0.11425 9.85636 -0.11425 13.9453 0.34275C15.3923 0.50446 16.0891 2.20125 15.1734 3.33318L11.6563 7.68069C10.6124 8.97119 10.0429 10.5807 10.0429 12.2405V17.7098C10.0429 17.9924 9.88396 18.2511 9.63186 18.3788C9.37976 18.5066 9.07726 18.4817 8.84936 18.3146L5.84936 16.1146C5.65668 15.9733 5.54286 15.7487 5.54286 15.5098V12.2405C5.54286 10.5807 4.97334 8.97119 3.92942 7.68069L0.412405 3.33318C-0.503285 2.20125 0.193504 0.50446 1.64043 0.34275Z" fill="#BC0000"/>
</svg>
