<svg width="39" height="39" viewBox="0 0 39 39" fill="none" xmlns="http://www.w3.org/2000/svg">
<circle cx="19.5" cy="19.5" r="19.5" fill="#FFE4E4"/>
<path fill-rule="evenodd" clip-rule="evenodd" d="M21.0827 12.9493C20.2848 12.1836 19.0247 12.1836 18.2268 12.9493L13.9859 17.0187C13.8819 17.1184 13.8121 17.2483 13.7861 17.3899C13.2781 20.16 13.2406 22.9958 13.6752 25.7783L13.7783 26.4388H16.5067V20.7451C16.5067 20.3653 16.8145 20.0576 17.1942 20.0576H22.1153C22.495 20.0576 22.8028 20.3653 22.8028 20.7451V26.4388H25.5312L25.6344 25.7783C26.0689 22.9958 26.0314 20.16 25.5234 17.3899C25.4975 17.2483 25.4276 17.1184 25.3237 17.0187L21.0827 12.9493ZM17.2748 11.9572C18.6048 10.6809 20.7047 10.6809 22.0348 11.9572L26.2757 16.0266C26.5879 16.3261 26.7979 16.7163 26.8759 17.1419C27.4117 20.0639 27.4513 23.0553 26.9929 25.9904L26.8272 27.0515C26.7586 27.4903 26.3807 27.8138 25.9366 27.8138H22.1153C21.7356 27.8138 21.4278 27.5059 21.4278 27.1263V21.4326H17.8817V27.1263C17.8817 27.5059 17.5739 27.8138 17.1942 27.8138H13.3729C12.9288 27.8138 12.5509 27.4903 12.4823 27.0515L12.3166 25.9904C11.8583 23.0553 11.8978 20.0639 12.4336 17.1419C12.5117 16.7163 12.7217 16.3261 13.0338 16.0266L17.2748 11.9572Z" fill="#BC0000"/>
</svg>
