<svg width="24" height="25" viewBox="0 0 24 25" fill="none" xmlns="http://www.w3.org/2000/svg">
<path d="M14 9.5C14 8.67157 14.6716 8 15.5 8C16.3284 8 17 8.67157 17 9.5C17 10.3284 16.3284 11 15.5 11C14.6716 11 14 10.3284 14 9.5Z" fill="#666666"/>
<path fill-rule="evenodd" clip-rule="evenodd" d="M7.26735 5.15855C10.4164 4.88481 13.5832 4.88481 16.7323 5.15855L18.2425 5.28983C19.6876 5.41545 20.8583 6.5151 21.074 7.94949C21.5276 10.9662 21.5276 14.0338 21.074 17.0505C20.8583 18.4849 19.6876 19.5845 18.2425 19.7102L16.7323 19.8414C13.5832 20.1152 10.4164 20.1152 7.26735 19.8414L5.75712 19.7102C4.31205 19.5845 3.14138 18.4849 2.92568 17.0505C2.47204 14.0338 2.47204 10.9662 2.92568 7.94949C3.14138 6.5151 4.31205 5.41545 5.75712 5.28983L7.26735 5.15855ZM16.6024 6.65292C13.5398 6.38669 10.4598 6.38669 7.39725 6.65292L5.88702 6.7842C5.13269 6.84977 4.5216 7.42379 4.40901 8.17254C4.15147 9.88516 4.04768 11.615 4.09762 13.3415L7.96949 9.46967C8.11554 9.32361 8.31538 9.24426 8.52185 9.25032C8.72832 9.25639 8.92314 9.34734 9.06037 9.50173L12.7318 13.6321L15.2626 12.7885C15.5457 12.6941 15.8577 12.7765 16.0573 12.9983L19.5764 16.9084C19.5818 16.8817 19.5865 16.8547 19.5906 16.8274C20.022 13.9586 20.022 11.0414 19.5906 8.17254C19.478 7.42379 18.8669 6.84977 18.1126 6.7842L16.6024 6.65292ZM18.62 18.088L15.2709 14.3669L12.737 15.2115C12.4523 15.3064 12.1386 15.2225 11.9392 14.9983L8.4677 11.0928L4.22402 15.3365C4.2728 15.8346 4.33446 16.3317 4.40901 16.8274C4.5216 17.5762 5.13269 18.1502 5.88702 18.2158L7.39726 18.3471C10.4598 18.6133 13.5398 18.6133 16.6024 18.3471L18.1126 18.2158C18.2913 18.2003 18.462 18.1562 18.62 18.088Z" fill="#666666"/>
</svg>
