<svg width="16" height="16" viewBox="0 0 16 16" fill="none" xmlns="http://www.w3.org/2000/svg">
<path d="M9.17772 14.648L8.39725 15.4285C8.06678 15.759 7.53241 15.759 7.20546 15.4285L0.371082 8.59763C0.0406128 8.26716 0.0406128 7.73279 0.371082 7.40584L7.20546 0.57146C7.53593 0.240991 8.0703 0.240991 8.39725 0.57146L9.17772 1.35193C9.51171 1.68591 9.50467 2.23083 9.16366 2.55779L4.92733 6.59373H15.0312C15.4988 6.59373 15.875 6.9699 15.875 7.43748V8.56248C15.875 9.03005 15.4988 9.40623 15.0312 9.40623H4.92733L9.16366 13.4422C9.50819 13.7691 9.51522 14.314 9.17772 14.648Z" fill="#666666"/>
</svg>
