<svg width="39" height="39" viewBox="0 0 39 39" fill="none" xmlns="http://www.w3.org/2000/svg">
<circle cx="19.5" cy="19.5" r="19.5" fill="white" fill-opacity="0.47"/>
<path fill-rule="evenodd" clip-rule="evenodd" d="M21.0827 11.9493C20.2848 11.1836 19.0247 11.1836 18.2268 11.9493L13.9859 16.0187C13.8819 16.1184 13.8121 16.2483 13.7861 16.3899C13.2781 19.16 13.2406 21.9958 13.6752 24.7783L13.7783 25.4388H16.5067V19.7451C16.5067 19.3653 16.8145 19.0576 17.1942 19.0576H22.1153C22.495 19.0576 22.8028 19.3653 22.8028 19.7451V25.4388H25.5312L25.6344 24.7783C26.0689 21.9958 26.0314 19.16 25.5234 16.3899C25.4975 16.2483 25.4276 16.1184 25.3237 16.0187L21.0827 11.9493ZM17.2748 10.9572C18.6048 9.68094 20.7047 9.68094 22.0348 10.9572L26.2757 15.0266C26.5879 15.3261 26.7979 15.7163 26.8759 16.1419C27.4117 19.0639 27.4513 22.0553 26.9929 24.9904L26.8272 26.0515C26.7586 26.4903 26.3807 26.8138 25.9366 26.8138H22.1153C21.7356 26.8138 21.4278 26.5059 21.4278 26.1263V20.4326H17.8817V26.1263C17.8817 26.5059 17.5739 26.8138 17.1942 26.8138H13.3729C12.9288 26.8138 12.5509 26.4903 12.4823 26.0515L12.3166 24.9904C11.8583 22.0553 11.8978 19.0639 12.4336 16.1419C12.5117 15.7163 12.7217 15.3261 13.0338 15.0266L17.2748 10.9572Z" fill="#BC0000"/>
</svg>
