<svg width="25" height="24" viewBox="0 0 25 24" fill="none" xmlns="http://www.w3.org/2000/svg">
<path d="M7.5 10C6.39543 10 5.5 10.8954 5.5 12C5.5 13.1046 6.39543 14 7.5 14C8.60457 14 9.5 13.1046 9.5 12C9.5 10.8954 8.60457 10 7.5 10Z" fill="#333333"/>
<path fill-rule="evenodd" clip-rule="evenodd" d="M7.5 6.25C4.32436 6.25 1.75 8.82436 1.75 12C1.75 15.1756 4.32436 17.75 7.5 17.75C9.68057 17.75 11.5762 16.5363 12.5508 14.75H15.75V17C15.75 17.4142 16.0858 17.75 16.5 17.75H20C20.4142 17.75 20.75 17.4142 20.75 17V14.75H22.5C22.9142 14.75 23.25 14.4142 23.25 14V11C23.25 10.0335 22.4665 9.25 21.5 9.25H12.5508C11.5762 7.46371 9.68057 6.25 7.5 6.25ZM3.25 12C3.25 9.65279 5.15279 7.75 7.5 7.75C9.24161 7.75 10.7402 8.79769 11.3967 10.3003C11.516 10.5734 11.7859 10.75 12.084 10.75H21.5C21.6381 10.75 21.75 10.8619 21.75 11V13.25H20C19.5858 13.25 19.25 13.5858 19.25 14V16.25H17.25V14C17.25 13.5858 16.9142 13.25 16.5 13.25H12.084C11.7859 13.25 11.516 13.4266 11.3967 13.6997C10.7402 15.2023 9.24161 16.25 7.5 16.25C5.15279 16.25 3.25 14.3472 3.25 12Z" fill="#333333"/>
</svg>
