<svg width="24" height="25" viewBox="0 0 24 25" fill="none" xmlns="http://www.w3.org/2000/svg">
<path d="M14 9.5C14 8.67157 14.6716 8 15.5 8C16.3284 8 17 8.67157 17 9.5C17 10.3284 16.3284 11 15.5 11C14.6716 11 14 10.3284 14 9.5Z" fill="#666666"/>
<path fill-rule="evenodd" clip-rule="evenodd" d="M7.26784 5.15855C10.4169 4.88481 13.5837 4.88481 16.7328 5.15855L18.243 5.28983C19.6881 5.41545 20.8588 6.5151 21.0745 7.94949C21.5281 10.9662 21.5281 14.0338 21.0745 17.0505C20.8588 18.4849 19.6881 19.5845 18.243 19.7102L16.7328 19.8414C13.5837 20.1152 10.4169 20.1152 7.26784 19.8414L5.75761 19.7102C4.31254 19.5845 3.14187 18.4849 2.92617 17.0505C2.47253 14.0338 2.47253 10.9662 2.92617 7.94949C3.14187 6.5151 4.31254 5.41545 5.75761 5.28983L7.26784 5.15855ZM16.6029 6.65292C13.5403 6.38669 10.4603 6.38669 7.39774 6.65292L5.88751 6.7842C5.13318 6.84977 4.52209 7.42379 4.4095 8.17254C4.15196 9.88516 4.04817 11.615 4.09811 13.3415L7.96998 9.46967C8.11603 9.32361 8.31587 9.24426 8.52234 9.25032C8.72881 9.25639 8.92363 9.34734 9.06086 9.50173L12.7323 13.6321L15.2631 12.7885C15.5462 12.6941 15.8582 12.7765 16.0578 12.9983L19.5769 16.9084C19.5823 16.8817 19.587 16.8547 19.5911 16.8274C20.0225 13.9586 20.0225 11.0414 19.5911 8.17254C19.4785 7.42379 18.8674 6.84977 18.1131 6.7842L16.6029 6.65292ZM18.6205 18.088L15.2714 14.3669L12.7375 15.2115C12.4528 15.3064 12.1391 15.2225 11.9397 14.9983L8.46819 11.0928L4.22451 15.3365C4.27329 15.8346 4.33495 16.3317 4.4095 16.8274C4.52209 17.5762 5.13318 18.1502 5.88751 18.2158L7.39775 18.3471C10.4603 18.6133 13.5403 18.6133 16.6029 18.3471L18.1131 18.2158C18.2918 18.2003 18.4625 18.1562 18.6205 18.088Z" fill="#666666"/>
</svg>
