<svg width="49" height="34" viewBox="0 0 49 34" fill="none" xmlns="http://www.w3.org/2000/svg">
<rect x="0.5" y="0.5" width="48" height="33" rx="5.5" stroke="#555555"/>
<path d="M25.1777 23.648L24.3973 24.4285C24.0668 24.759 23.5324 24.759 23.2055 24.4285L16.3711 17.5976C16.0406 17.2672 16.0406 16.7328 16.3711 16.4058L23.2055 9.57146C23.5359 9.24099 24.0703 9.24099 24.3973 9.57146L25.1777 10.3519C25.5117 10.6859 25.5047 11.2308 25.1637 11.5578L20.9273 15.5937H31.0312C31.4988 15.5937 31.875 15.9699 31.875 16.4375V17.5625C31.875 18.0301 31.4988 18.4062 31.0312 18.4062H20.9273L25.1637 22.4422C25.5082 22.7691 25.5152 23.314 25.1777 23.648Z" fill="#666666"/>
</svg>
