<svg width="24" height="25" viewBox="0 0 24 25" fill="none" xmlns="http://www.w3.org/2000/svg">
<path fill-rule="evenodd" clip-rule="evenodd" d="M7.75 7.66663C7.75 5.31942 9.65279 3.41663 12 3.41663C14.3472 3.41663 16.25 5.31942 16.25 7.66663C16.25 10.0138 14.3472 11.9166 12 11.9166C9.65279 11.9166 7.75 10.0138 7.75 7.66663ZM12 4.91663C10.4812 4.91663 9.25 6.14785 9.25 7.66663C9.25 9.18541 10.4812 10.4166 12 10.4166C13.5188 10.4166 14.75 9.18541 14.75 7.66663C14.75 6.14785 13.5188 4.91663 12 4.91663Z" fill="#666666"/>
<path fill-rule="evenodd" clip-rule="evenodd" d="M8 14.9166C6.75736 14.9166 5.75 15.924 5.75 17.1666V18.3549C5.75 18.373 5.76311 18.3884 5.78097 18.3913C9.89972 19.0638 14.1003 19.0638 18.219 18.3913C18.2369 18.3884 18.25 18.373 18.25 18.3549V17.1666C18.25 15.924 17.2426 14.9166 16 14.9166H15.6591C15.6328 14.9166 15.6066 14.9208 15.5815 14.9289L14.716 15.2116C12.9512 15.7878 11.0488 15.7878 9.28398 15.2116L8.41847 14.9289C8.39342 14.9208 8.36722 14.9166 8.34087 14.9166H8ZM4.25 17.1666C4.25 15.0955 5.92893 13.4166 8 13.4166H8.34087C8.52536 13.4166 8.70869 13.4458 8.88407 13.503L9.74959 13.7857C11.2119 14.2631 12.7881 14.2631 14.2504 13.7857L15.1159 13.503C15.2913 13.4458 15.4746 13.4166 15.6591 13.4166H16C18.0711 13.4166 19.75 15.0955 19.75 17.1666V18.3549C19.75 19.1081 19.2041 19.7503 18.4607 19.8717C14.1819 20.5703 9.8181 20.5703 5.53927 19.8717C4.79588 19.7503 4.25 19.1081 4.25 18.3549V17.1666Z" fill="#666666"/>
</svg>
