<svg width="9" height="9" viewBox="0 0 9 9" fill="none" xmlns="http://www.w3.org/2000/svg">
<path d="M0.84375 4.5L2.25 4.5L2.25 5.625C2.25 6.24551 1.74551 6.75 1.125 6.75L0.984375 6.75C0.750585 6.75 0.5625 6.93809 0.5625 7.17188L0.5625 8.01563C0.5625 8.24941 0.750586 8.4375 0.984375 8.4375L1.125 8.4375C2.67891 8.4375 3.9375 7.17891 3.9375 5.625L3.9375 1.40625C3.9375 0.94043 3.55957 0.5625 3.09375 0.562501L0.843749 0.562501C0.377929 0.562501 -6.55415e-07 0.94043 -6.14691e-07 1.40625L-4.1799e-07 3.65625C-3.77267e-07 4.12207 0.377929 4.5 0.84375 4.5ZM5.90625 4.5L7.3125 4.5L7.3125 5.625C7.3125 6.24551 6.80801 6.75 6.1875 6.75L6.04687 6.75C5.81309 6.75 5.625 6.93809 5.625 7.17188L5.625 8.01563C5.625 8.24941 5.81309 8.4375 6.04688 8.4375L6.1875 8.4375C7.74141 8.4375 9 7.17891 9 5.625L9 1.40625C9 0.94043 8.62207 0.5625 8.15625 0.5625L5.90625 0.5625C5.44043 0.5625 5.0625 0.94043 5.0625 1.40625L5.0625 3.65625C5.0625 4.12207 5.44043 4.5 5.90625 4.5Z" fill="#FFB0B1"/>
</svg>
