<svg width="9" height="9" viewBox="0 0 9 9" fill="none" xmlns="http://www.w3.org/2000/svg">
<path d="M8.15625 4.5H6.75V3.375C6.75 2.75449 7.25449 2.25 7.875 2.25H8.01562C8.24941 2.25 8.4375 2.06191 8.4375 1.82812V0.984375C8.4375 0.750586 8.24941 0.5625 8.01562 0.5625H7.875C6.32109 0.5625 5.0625 1.82109 5.0625 3.375V7.59375C5.0625 8.05957 5.44043 8.4375 5.90625 8.4375H8.15625C8.62207 8.4375 9 8.05957 9 7.59375V5.34375C9 4.87793 8.62207 4.5 8.15625 4.5ZM3.09375 4.5H1.6875V3.375C1.6875 2.75449 2.19199 2.25 2.8125 2.25H2.95312C3.18691 2.25 3.375 2.06191 3.375 1.82812V0.984375C3.375 0.750586 3.18691 0.5625 2.95312 0.5625H2.8125C1.25859 0.5625 0 1.82109 0 3.375V7.59375C0 8.05957 0.37793 8.4375 0.84375 8.4375H3.09375C3.55957 8.4375 3.9375 8.05957 3.9375 7.59375V5.34375C3.9375 4.87793 3.55957 4.5 3.09375 4.5Z" fill="#FFB0B1"/>
</svg>
