<svg width="16" height="16" viewBox="0 0 16 16" fill="none" xmlns="http://www.w3.org/2000/svg">
<path d="M6.82228 14.648L7.60275 15.4285C7.93322 15.759 8.46759 15.759 8.79454 15.4285L15.6289 8.59763C15.9594 8.26716 15.9594 7.73279 15.6289 7.40584L8.79454 0.57146C8.46407 0.240991 7.9297 0.240991 7.60275 0.57146L6.82228 1.35193C6.48829 1.68591 6.49533 2.23083 6.83634 2.55779L11.0727 6.59373H0.968762C0.501184 6.59373 0.125012 6.9699 0.125012 7.43748V8.56248C0.125012 9.03005 0.501184 9.40623 0.968762 9.40623H11.0727L6.83634 13.4422C6.49181 13.7691 6.48478 14.314 6.82228 14.648Z" fill="#BC0000"/>
</svg>
