<svg width="18" height="18" viewBox="0 0 18 18" fill="none" xmlns="http://www.w3.org/2000/svg">
<path fill-rule="evenodd" clip-rule="evenodd" d="M11.3851 12.4458C8.73476 14.5685 4.85533 14.4014 2.39854 11.9446C-0.237501 9.30856 -0.237501 5.0347 2.39854 2.39866C5.03458 -0.237379 9.30846 -0.237379 11.9445 2.39866C14.4013 4.85544 14.5684 8.73486 12.4457 11.3852L17.6014 16.5408C17.8943 16.8337 17.8943 17.3086 17.6014 17.6015C17.3085 17.8944 16.8336 17.8944 16.5407 17.6015L11.3851 12.4458ZM3.4592 10.884C1.40895 8.83366 1.40895 5.50957 3.4592 3.45932C5.50946 1.40907 8.83356 1.40907 10.8839 3.45932C12.9326 5.50807 12.9341 8.82876 10.8884 10.8795C10.8869 10.881 10.8854 10.8824 10.8838 10.884C10.8823 10.8855 10.8808 10.887 10.8794 10.8885C8.82866 12.9342 5.50795 12.9327 3.4592 10.884Z" fill="white"/>
</svg>
