<svg width="24" height="25" viewBox="0 0 24 25" fill="none" xmlns="http://www.w3.org/2000/svg">
<path fill-rule="evenodd" clip-rule="evenodd" d="M11.9993 3.91259L9.78648 6.20209C9.55095 6.44578 9.22657 6.58339 8.88767 6.58339H5.74928V9.72178C5.74928 10.0607 5.61167 10.3851 5.36798 10.6206L3.07848 12.8334L5.36798 15.0462C5.61167 15.2817 5.74928 15.6061 5.74928 15.945V19.0834H8.88767C9.22657 19.0834 9.55095 19.221 9.78648 19.4647L11.9993 21.7542L14.2121 19.4647C14.4476 19.221 14.772 19.0834 15.1109 19.0834H18.2493V15.945C18.2493 15.6061 18.3869 15.2817 18.6306 15.0462L20.9201 12.8334L18.6306 10.6206C18.3869 10.3851 18.2493 10.0607 18.2493 9.72179V6.58339H15.1109C14.772 6.58339 14.4476 6.44578 14.2121 6.20209L11.9993 3.91259ZM11.1005 2.68416C11.5919 2.17576 12.4067 2.17576 12.8981 2.68416L15.217 5.08339H18.4993C19.1897 5.08339 19.7493 5.64304 19.7493 6.33339V9.61573L22.1485 11.9346C22.6569 12.426 22.6569 13.2408 22.1485 13.7322L19.7493 16.0511V19.3334C19.7493 20.0238 19.1897 20.5834 18.4993 20.5834H15.217L12.8981 22.9826C12.4067 23.491 11.5919 23.491 11.1005 22.9826L8.78161 20.5834H5.49928C4.80892 20.5834 4.24928 20.0238 4.24928 19.3334V16.0511L1.85005 13.7322C1.34165 13.2408 1.34164 12.426 1.85005 11.9346L4.24928 9.61572V6.33339C4.24928 5.64303 4.80892 5.08339 5.49928 5.08339H8.78161L11.1005 2.68416Z" fill="#666666"/>
<path fill-rule="evenodd" clip-rule="evenodd" d="M7.25 12.8334C7.25 10.21 9.37665 8.08337 12 8.08337C14.6234 8.08337 16.75 10.21 16.75 12.8334C16.75 15.4568 14.6234 17.5834 12 17.5834C9.37665 17.5834 7.25 15.4568 7.25 12.8334ZM12 9.58337C10.2051 9.58337 8.75 11.0385 8.75 12.8334C8.75 14.6283 10.2051 16.0834 12 16.0834C13.7949 16.0834 15.25 14.6283 15.25 12.8334C15.25 11.0385 13.7949 9.58337 12 9.58337Z" fill="#666666"/>
</svg>
