<svg width="24" height="25" viewBox="0 0 24 25" fill="none" xmlns="http://www.w3.org/2000/svg">
<path fill-rule="evenodd" clip-rule="evenodd" d="M11.9998 3.91259L9.78697 6.20209C9.55144 6.44578 9.22706 6.58339 8.88816 6.58339H5.74977V9.72178C5.74977 10.0607 5.61216 10.3851 5.36847 10.6206L3.07897 12.8334L5.36847 15.0462C5.61216 15.2817 5.74977 15.6061 5.74977 15.945V19.0834H8.88816C9.22706 19.0834 9.55144 19.221 9.78697 19.4647L11.9998 21.7542L14.2126 19.4647C14.4481 19.221 14.7725 19.0834 15.1114 19.0834H18.2498V15.945C18.2498 15.6061 18.3874 15.2817 18.6311 15.0462L20.9206 12.8334L18.6311 10.6206C18.3874 10.3851 18.2498 10.0607 18.2498 9.72179V6.58339H15.1114C14.7725 6.58339 14.4481 6.44578 14.2126 6.20209L11.9998 3.91259ZM11.101 2.68416C11.5924 2.17576 12.4072 2.17576 12.8986 2.68416L15.2175 5.08339H18.4998C19.1902 5.08339 19.7498 5.64304 19.7498 6.33339V9.61573L22.149 11.9346C22.6574 12.426 22.6574 13.2408 22.149 13.7322L19.7498 16.0511V19.3334C19.7498 20.0238 19.1902 20.5834 18.4998 20.5834H15.2175L12.8986 22.9826C12.4072 23.491 11.5924 23.491 11.101 22.9826L8.7821 20.5834H5.49977C4.80941 20.5834 4.24977 20.0238 4.24977 19.3334V16.0511L1.85054 13.7322C1.34214 13.2408 1.34213 12.426 1.85054 11.9346L4.24977 9.61572V6.33339C4.24977 5.64303 4.80941 5.08339 5.49977 5.08339H8.7821L11.101 2.68416Z" fill="#666666"/>
<path fill-rule="evenodd" clip-rule="evenodd" d="M7.25 12.8334C7.25 10.21 9.37665 8.08337 12 8.08337C14.6234 8.08337 16.75 10.21 16.75 12.8334C16.75 15.4568 14.6234 17.5834 12 17.5834C9.37665 17.5834 7.25 15.4568 7.25 12.8334ZM12 9.58337C10.2051 9.58337 8.75 11.0385 8.75 12.8334C8.75 14.6283 10.2051 16.0834 12 16.0834C13.7949 16.0834 15.25 14.6283 15.25 12.8334C15.25 11.0385 13.7949 9.58337 12 9.58337Z" fill="#666666"/>
</svg>
