<svg width="20" height="25" viewBox="0 0 20 25" fill="none" xmlns="http://www.w3.org/2000/svg">
<path fill-rule="evenodd" clip-rule="evenodd" d="M12.5714 4.0186C12.5714 1.79918 14.2344 0 16.2857 0C18.337 0 20 1.79918 20 4.0186C20 6.23801 18.337 8.03719 16.2857 8.03719C15.189 8.03719 14.2033 7.52292 13.5234 6.70512L10.4179 8.53781L6.94303 10.6861C7.25202 11.2723 7.42857 11.9509 7.42857 12.674C7.42857 13.0404 7.38325 13.3954 7.29832 13.7327L13.5234 17.4065C14.2033 16.5886 15.189 16.0744 16.2857 16.0744C18.337 16.0744 20 17.8736 20 20.093C20 22.3124 18.337 24.1116 16.2857 24.1116C14.2344 24.1116 12.5714 22.3124 12.5714 20.093C12.5714 19.7265 12.6168 19.3716 12.7017 19.0343L6.47662 15.3606C5.79671 16.1784 4.81101 16.6926 3.71429 16.6926C1.66294 16.6926 0 14.8934 0 12.674C0 10.4547 1.66294 8.65544 3.71429 8.65544C4.45792 8.65544 5.15051 8.89188 5.73134 9.29905L9.58206 6.91834L12.7017 5.07734C12.6168 4.74001 12.5714 4.38503 12.5714 4.0186ZM16.2857 1.85474C15.1811 1.85474 14.2857 2.82353 14.2857 4.0186C14.2857 5.21366 15.1811 6.18245 16.2857 6.18245C17.3903 6.18245 18.2857 5.21366 18.2857 4.0186C18.2857 2.82353 17.3903 1.85474 16.2857 1.85474ZM3.71429 10.5102C2.60971 10.5102 1.71429 11.479 1.71429 12.674C1.71429 13.8691 2.60971 14.8379 3.71429 14.8379C4.81886 14.8379 5.71429 13.8691 5.71429 12.674C5.71429 11.479 4.81886 10.5102 3.71429 10.5102ZM14.2857 20.093C14.2857 18.8979 15.1811 17.9291 16.2857 17.9291C17.3903 17.9291 18.2857 18.8979 18.2857 20.093C18.2857 21.288 17.3903 22.2568 16.2857 22.2568C15.1811 22.2568 14.2857 21.288 14.2857 20.093Z" fill="#333333"/>
</svg>
