<svg width="12" height="20" viewBox="0 0 12 20" fill="none" xmlns="http://www.w3.org/2000/svg">
<path fill-rule="evenodd" clip-rule="evenodd" d="M4.5071 0.25167C4.5238 0.25056 4.5404 0.25 4.5571 0.25H7.1029C7.5171 0.25 7.8529 0.58579 7.8529 1V4.71382H10.5902C11.0044 4.71382 11.3402 5.04961 11.3402 5.46382V8.0793C11.3402 8.4936 11.0044 8.8293 10.5902 8.8293H7.8529V13.5109C7.8529 13.5482 7.8501 13.5855 7.8445 13.6225C7.8269 13.7399 7.8364 13.8597 7.8724 13.9729C7.9083 14.086 7.9698 14.1894 8.052 14.275C8.1343 14.3607 8.235 14.4263 8.3466 14.4669C8.4582 14.5074 8.5776 14.5218 8.6956 14.509C8.7142 14.507 8.7329 14.5056 8.7516 14.505C9.1471 14.4917 9.537 14.4075 9.9027 14.2563C10.0955 14.1766 10.3127 14.1808 10.5023 14.2679C10.6919 14.355 10.8366 14.5171 10.9017 14.7153L11.7125 17.1826C11.7851 17.4036 11.7511 17.6457 11.6204 17.8382C11.4495 18.0898 11.1888 18.2794 10.9571 18.4165C10.7082 18.5638 10.4139 18.6961 10.1007 18.807C9.4792 19.0271 8.7188 19.1859 7.9808 19.1868C5.8845 19.219 4.3659 18.4612 3.37895 17.362C2.41035 16.2833 1.99368 14.9206 1.99368 13.7812V8.8293H1C0.58579 8.8293 0.25 8.4936 0.25 8.0793V5.82999C0.25 5.51813 0.44299 5.2388 0.73469 5.12848C1.56531 4.81435 2.2866 4.26537 2.81065 3.54846C3.33255 2.83449 3.63637 1.98469 3.68551 1.10183C3.69243 0.88909 3.77622 0.68563 3.92193 0.52952C4.0746 0.36593 4.2838 0.26659 4.5071 0.25167ZM5.1252 1.75C4.9799 2.71769 4.6025 3.63904 4.0216 4.43365C3.42988 5.24316 2.64874 5.8914 1.75 6.32373V7.32934H2.74368C3.15789 7.32934 3.49368 7.66512 3.49368 8.0793V13.7812C3.49368 14.586 3.79628 15.5816 4.4951 16.3599C5.1746 17.1167 6.2695 17.7141 7.9626 17.6869L7.9747 17.6867C8.5164 17.6867 9.1093 17.5669 9.5999 17.3931C9.809 17.319 9.9875 17.2394 10.1272 17.1631L9.7078 15.8868C9.4194 15.9525 9.1251 15.9916 8.8285 16.0032C8.4919 16.0354 8.1522 15.9922 7.8341 15.8766C7.5068 15.7576 7.2112 15.5651 6.97 15.3138C6.7287 15.0626 6.5484 14.7593 6.4429 14.4274C6.3436 14.1151 6.313 13.7852 6.3529 13.4604V8.0793C6.3529 7.66512 6.6887 7.32934 7.1029 7.32934H9.8402V6.21382H7.1029C6.6887 6.21382 6.3529 5.87803 6.3529 5.46382V1.75H5.1252Z" fill="white"/>
</svg>
