<svg width="22" height="18" viewBox="0 0 22 18" fill="none" xmlns="http://www.w3.org/2000/svg">
<path fill-rule="evenodd" clip-rule="evenodd" d="M13.7716 0.0809508C14.2799 -0.00612924 14.8492 -0.0352093 15.385 0.0554307C16.3419 0.217311 17.2257 0.662041 17.9244 1.3288C18.3811 1.33913 18.8299 1.24916 19.227 1.1209C19.5631 1.01235 19.8471 0.881271 20.046 0.777641C20.1449 0.726111 20.2213 0.682151 20.271 0.652391C20.2958 0.637531 20.3139 0.626291 20.3246 0.619501L20.3341 0.613431C20.6309 0.415711 21.0261 0.454191 21.279 0.705701C21.5319 0.957261 21.5727 1.35218 21.3764 1.65008C21.1687 1.96538 20.8803 2.52745 20.5573 3.15721C20.5065 3.25623 20.4548 3.35692 20.4025 3.45859C20.2172 3.81855 20.0272 4.18237 19.8501 4.4945C19.7389 4.69048 19.62 4.88946 19.5001 5.0614V5.33518C19.5077 6.34081 19.3924 7.34117 19.1583 8.31437C19.011 8.92677 18.8167 9.52837 18.5765 10.1138C17.9541 11.6304 17.0357 13.0079 15.875 14.1656C14.7142 15.3234 13.3344 16.2382 11.8162 16.8568C10.2993 17.4747 8.6745 17.7845 7.03665 17.7681C4.66234 17.7702 2.33797 17.0861 0.343254 15.7982C0.0494536 15.6085 -0.0742464 15.2409 0.0450936 14.9122C0.164424 14.5834 0.495124 14.3808 0.842194 14.4238C1.14255 14.461 1.44496 14.4791 1.74761 14.4781C2.83506 14.4751 3.9018 14.2348 4.87566 13.7821C4.56611 13.6412 4.27058 13.4675 3.99442 13.2627C3.18271 12.6608 2.5788 11.8208 2.26673 10.8597C2.18563 10.61 2.24107 10.336 2.41289 10.1374C2.41596 10.1338 2.41907 10.1303 2.42221 10.1268C2.23868 9.96317 2.06695 9.78497 1.90885 9.59337C1.19754 8.73117 0.805864 7.64967 0.800084 6.53195L0.800064 6.52807L0.800074 6.47807C0.800074 6.21221 0.940824 5.96621 1.17002 5.83149C1.22813 5.79734 1.28971 5.77163 1.35306 5.75439C1.01473 5.07931 0.838784 4.33387 0.840074 3.57761C0.839674 2.72084 1.06347 1.87887 1.48923 1.13537C1.61214 0.920741 1.83297 0.7805 2.0795 0.76052C2.32602 0.74055 2.56655 0.8434 2.72241 1.03545C3.68497 2.22146 4.88626 3.19171 6.24824 3.88318C6.94838 4.23864 7.68293 4.51633 8.43873 4.71277C8.86247 4.8229 9.29287 4.90748 9.72767 4.96591C9.70847 4.24265 9.85127 3.51978 10.1511 2.85185C10.5908 1.87203 11.3432 1.06585 12.2905 0.559761C12.6916 0.345431 13.2241 0.174721 13.7716 0.0809508ZM2.49334 7.62847C2.62299 7.99337 2.81586 8.33567 3.06591 8.63877C3.55724 9.23427 4.23918 9.64187 4.9964 9.79247C5.33369 9.85957 5.58212 10.1475 5.59915 10.491C5.61617 10.8344 5.39742 11.1455 5.06843 11.2456C4.79593 11.3285 4.51675 11.3863 4.2344 11.4184C4.42098 11.6589 4.64046 11.8744 4.88787 12.0578C5.44905 12.4739 6.126 12.7048 6.82451 12.7182C7.14142 12.7243 7.42029 12.929 7.52112 13.2295C7.62194 13.5301 7.52296 13.8615 7.27385 14.0575C6.22468 14.8831 5.01148 15.4587 3.72593 15.7526C4.79142 16.0938 5.90886 16.2695 7.03915 16.2681H7.04786C8.48792 16.283 9.91647 16.011 11.2502 15.4676C12.584 14.9243 13.796 14.1206 14.8157 13.1036C15.8353 12.0866 16.642 10.8766 17.1888 9.54427C17.3998 9.02997 17.5705 8.50157 17.6999 7.96367C17.9057 7.10787 18.007 6.2282 18.0001 5.34394V5.33807V4.80807C18.0001 4.62622 18.0662 4.45056 18.186 4.31379C18.2553 4.23474 18.3765 4.05219 18.5455 3.75429C18.7061 3.47116 18.8839 3.13126 19.0688 2.77207C19.08 2.75035 19.0912 2.72851 19.1025 2.70658C18.6229 2.81072 18.0793 2.86531 17.5095 2.80373C17.3291 2.78423 17.1618 2.69994 17.0387 2.5665C16.5359 2.02116 15.8662 1.65816 15.1348 1.53441C14.8103 1.47951 14.4179 1.49208 14.0248 1.55941C13.5977 1.63258 13.226 1.76059 12.9973 1.88276C12.343 2.23233 11.8233 2.78918 11.5196 3.46596C11.2159 4.14275 11.1454 4.9012 11.3192 5.62235C11.3746 5.85226 11.3184 6.09484 11.1674 6.27687C11.0164 6.4589 10.7884 6.55906 10.5522 6.54711C9.70877 6.50445 8.87427 6.3758 8.06141 6.16454C7.20151 5.94105 6.36578 5.6251 5.5692 5.22068C4.39642 4.62527 3.32837 3.84818 2.40353 2.92049C2.36134 3.1361 2.33992 3.35613 2.34007 3.57758V3.57949C2.33902 4.13021 2.47417 4.67264 2.73348 5.15849C2.99279 5.64434 3.36821 6.05853 3.82633 6.36419C4.10435 6.54969 4.22608 6.89677 4.12482 7.21527C4.02357 7.53377 3.72377 7.74687 3.38967 7.73777C3.08708 7.72957 2.78701 7.69277 2.49334 7.62847Z" fill="white"/>
</svg>
