<svg width="25" height="24" viewBox="0 0 25 24" fill="none" xmlns="http://www.w3.org/2000/svg">
<path d="M10.0457 8.16278C9.83045 8.106 9.65157 7.95656 9.55741 7.75487C9.46325 7.55318 9.46354 7.32009 9.5582 7.11864L11.2189 3.58425C11.3427 3.32086 11.6077 3.15284 11.8987 3.1532C12.1897 3.15356 12.4542 3.32224 12.5773 3.58593L13.31 5.15516C13.3361 5.14487 13.3632 5.13594 13.391 5.12848C17.7383 3.96362 22.2069 6.54352 23.3717 10.8908C24.5366 15.2382 21.9567 19.7067 17.6094 20.8716C13.262 22.0364 8.79351 19.4565 7.62864 15.1092C7.25821 13.7267 7.26655 12.3299 7.59098 11.0311C7.69137 10.6293 8.09853 10.3849 8.50039 10.4853C8.90226 10.5856 9.14665 10.9928 9.04626 11.3947C8.78197 12.4527 8.77468 13.5907 9.07753 14.721C10.028 18.2681 13.674 20.3731 17.2211 19.4228C20.7683 18.4722 22.8733 14.8262 21.9229 11.2791C20.9879 7.78995 17.4449 5.69614 13.9533 6.53319L14.6925 8.11649C14.8156 8.38018 14.775 8.69129 14.5885 8.91462C14.4019 9.13795 14.103 9.23319 13.8216 9.15896L10.0457 8.16278Z" fill="#333333"/>
</svg>
