<svg width="22" height="16" viewBox="0 0 22 16" fill="none" xmlns="http://www.w3.org/2000/svg">
<path fill-rule="evenodd" clip-rule="evenodd" d="M9.3859 4.35688C9.1542 4.21786 8.86561 4.21422 8.63048 4.34735C8.39534 4.48048 8.25 4.7298 8.25 5V11C8.25 11.2702 8.39534 11.5195 8.63048 11.6526C8.86561 11.7858 9.1542 11.7821 9.3859 11.6431L14.3859 8.6431C14.6118 8.5076 14.75 8.2634 14.75 8C14.75 7.7366 14.6118 7.4924 14.3859 7.3569L9.3859 4.35688ZM12.5423 8L9.75 9.6754V6.3246L12.5423 8Z" fill="white"/>
<path fill-rule="evenodd" clip-rule="evenodd" d="M16.0307 0.641309C12.682 0.379329 9.318 0.379329 5.96938 0.641309L3.72868 0.816609C2.36612 0.923209 1.25143 1.94442 1.02619 3.29246C0.50543 6.40923 0.50543 9.59083 1.02619 12.7076C1.25143 14.0556 2.36612 15.0768 3.72868 15.1834L5.96938 15.3587C9.318 15.6207 12.682 15.6207 16.0307 15.3587L18.2714 15.1834C19.6339 15.0768 20.7486 14.0556 20.9739 12.7076C21.4946 9.59083 21.4946 6.40923 20.9739 3.29246C20.7486 1.94442 19.6339 0.923209 18.2714 0.816609L16.0307 0.641309ZM6.08638 2.13674C9.3572 1.88085 12.6429 1.88085 15.9137 2.13674L18.1544 2.31204C18.83 2.3649 19.3827 2.87125 19.4944 3.53966C19.9878 6.49273 19.9878 9.50733 19.4944 12.4604C19.3827 13.1288 18.83 13.6351 18.1544 13.688L15.9137 13.8633C12.6429 14.1192 9.3571 14.1192 6.08638 13.8633L3.84568 13.688C3.17007 13.6351 2.61736 13.1288 2.50568 12.4604C2.01227 9.50733 2.01227 6.49273 2.50568 3.53966C2.61736 2.87125 3.17007 2.3649 3.84568 2.31204L6.08638 2.13674Z" fill="white"/>
</svg>
